<svg height="480pt" viewBox="0 0 480 480" width="480pt" xmlns="http://www.w3.org/2000/svg" xmlns:xlink="http://www.w3.org/1999/xlink"><linearGradient id="a"><stop offset="0" stop-color="#fff200"/><stop offset="1" stop-color="#cd118c"/></linearGradient><linearGradient id="b" gradientUnits="userSpaceOnUse" x1="51.72" x2="443.72" xlink:href="#a" y1="462.864" y2="-1.136"/><linearGradient id="c" gradientUnits="userSpaceOnUse" x1="57.632" x2="449.632" xlink:href="#a" y1="467.864" y2="3.864"/><linearGradient id="d" gradientUnits="userSpaceOnUse" x1="-13.96" x2="378.04" xlink:href="#a" y1="407.376" y2="-56.624"/><linearGradient id="e" gradientUnits="userSpaceOnUse" x1="46.728" x2="438.728" xlink:href="#a" y1="458.648" y2="-5.352"/><linearGradient id="f" gradientUnits="userSpaceOnUse" x1="17.592" x2="409.592" xlink:href="#a" y1="434.032" y2="-29.968"/><linearGradient id="g" gradientUnits="userSpaceOnUse" x1="78.28" x2="470.28" xlink:href="#a" y1="485.304" y2="21.304"/><linearGradient id="h" gradientUnits="userSpaceOnUse" x1="49.144" x2="441.144" xlink:href="#a" y1="460.688" y2="-3.312"/><linearGradient id="i" gradientUnits="userSpaceOnUse" x1="109.832" x2="501.832" xlink:href="#a" y1="511.96" y2="47.96"/><path d="m240 0c-132.546875 0-240 107.453125-240 240s107.453125 240 240 240 240-107.453125 240-240c-.148438-132.484375-107.515625-239.851562-240-240zm0 464c-123.710938 0-224-100.289062-224-224s100.289062-224 224-224 224 100.289062 224 224c-.140625 123.652344-100.347656 223.859375-224 224zm0 0" fill="url(#b)"/><path d="m360 112h-64v-16c0-4.417969-3.582031-8-8-8h-96c-4.417969 0-8 3.582031-8 8v16h-64c-4.417969 0-8 3.582031-8 8v264c0 4.417969 3.582031 8 8 8h240c4.417969 0 8-3.582031 8-8v-264c0-4.417969-3.582031-8-8-8zm-160-8h80v32h-80zm152 272h-224v-248h56v16c0 4.417969 3.582031 8 8 8h96c4.417969 0 8-3.582031 8-8v-16h56zm0 0" fill="url(#c)"/><path d="m184 168h-32c-4.417969 0-8 3.582031-8 8v32c0 4.417969 3.582031 8 8 8h32c4.417969 0 8-3.582031 8-8v-32c0-4.417969-3.582031-8-8-8zm-8 32h-16v-16h16zm0 0" fill="url(#d)"/><path d="m208 184h128v16h-128zm0 0" fill="url(#e)"/><path d="m184 232h-32c-4.417969 0-8 3.582031-8 8v32c0 4.417969 3.582031 8 8 8h32c4.417969 0 8-3.582031 8-8v-32c0-4.417969-3.582031-8-8-8zm-8 32h-16v-16h16zm0 0" fill="url(#f)"/><path d="m208 248h128v16h-128zm0 0" fill="url(#g)"/><path d="m184 296h-32c-4.417969 0-8 3.582031-8 8v32c0 4.417969 3.582031 8 8 8h32c4.417969 0 8-3.582031 8-8v-32c0-4.417969-3.582031-8-8-8zm-8 32h-16v-16h16zm0 0" fill="url(#h)"/><path d="m208 312h128v16h-128zm0 0" fill="url(#i)"/></svg>