<svg height="480pt" viewBox="0 0 480 480" width="480pt" xmlns="http://www.w3.org/2000/svg" xmlns:xlink="http://www.w3.org/1999/xlink"><linearGradient id="a"><stop offset="0" stop-color="#fff200"/><stop offset="1" stop-color="#cd118c"/></linearGradient><linearGradient id="b" gradientUnits="userSpaceOnUse" x1="77.36" x2="413.36" xlink:href="#a" y1="433.624" y2="33.624"/><linearGradient id="c" gradientUnits="userSpaceOnUse" x1="85.704" x2="421.704" xlink:href="#a" y1="440.632" y2="40.632"/><linearGradient id="d" gradientUnits="userSpaceOnUse" x1="40.584" x2="376.584" xlink:href="#a" y1="402.728" y2="2.728"/><linearGradient id="e" gradientUnits="userSpaceOnUse" x1="106.248" x2="442.248" xlink:href="#a" y1="457.888" y2="57.888"/><path d="m240 0c-132.546875 0-240 107.453125-240 240s107.453125 240 240 240 240-107.453125 240-240c-.148438-132.484375-107.515625-239.851562-240-240zm0 464c-123.710938 0-224-100.289062-224-224s100.289062-224 224-224 224 100.289062 224 224c-.140625 123.652344-100.347656 223.859375-224 224zm0 0" fill="url(#b)"/><path d="m386.902344 168.542969-34.902344-13.566407v-42.976562c0-4.417969-3.582031-8-8-8h-32c-4.417969 0-8 3.582031-8 8v24.304688l-61.105469-23.761719c-1.859375-.726563-3.929687-.726563-5.789062 0l-144 56c-3.078125 1.195312-5.105469 4.15625-5.105469 7.457031v24c0 2.640625 1.304688 5.113281 3.484375 6.605469 2.179687 1.492187 4.957031 1.808593 7.417969.851562l21.097656-8.210937v176.753906c0 4.417969 3.582031 8 8 8h224c4.417969 0 8-3.582031 8-8v-176.753906l21.097656 8.210937c2.457032.957031 5.234375.640625 7.414063-.847656 2.183593-1.492187 3.488281-3.964844 3.488281-6.609375v-24c0-3.296875-2.023438-6.257812-5.097656-7.457031zm-66.902344-48.542969h16v28.753906l-16-6.226562zm-104 248v-56h48v56zm128 0h-64v-64c0-4.417969-3.582031-8-8-8h-64c-4.417969 0-8 3.582031-8 8v64h-64v-174.976562l104-40.4375 104 40.4375zm32-179.703125-133.105469-51.753906c-1.859375-.726563-3.929687-.726563-5.789062 0l-133.105469 51.753906v-6.832031l136-52.878906 136 52.878906zm0 0" fill="url(#c)"/><path d="m200 200h-32c-4.417969 0-8 3.582031-8 8v48c0 4.417969 3.582031 8 8 8h32c4.417969 0 8-3.582031 8-8v-48c0-4.417969-3.582031-8-8-8zm-8 48h-16v-32h16zm0 0" fill="url(#d)"/><path d="m280 264h32c4.417969 0 8-3.582031 8-8v-48c0-4.417969-3.582031-8-8-8h-32c-4.417969 0-8 3.582031-8 8v48c0 4.417969 3.582031 8 8 8zm8-48h16v32h-16zm0 0" fill="url(#e)"/></svg>